<svg xmlns="http://www.w3.org/2000/svg" width="144" height="57" viewBox="0 0 12.07 5.22" xml:space="preserve" fill-rule="evenodd" clip-rule="evenodd" image-rendering="optimizeQuality" shape-rendering="geometricPrecision" text-rendering="geometricPrecision">
  <g id="Layer_x0020_1">
    <g id="_2057083128128" fill="#f4a609">
      <path d="M1.47 3.72h3.88a1.16 1.16 0 0 0-.09-2.31H2.97l-.41.8h2.97v.5H2.45v-1.7h2.9V0H2.76a1.3 1.3 0 0 0-1.29 1.29zm7.17-1.23c.47 0 .85.38.85.86 0 .47-.38.85-.85.85a.86.86 0 0 1-.86-.85c0-.48.39-.86.86-.86M6.96 3.72h.65a1 1 0 0 1-.07-.37c0-.34.16-.65.4-.85V1.01h2.49V0H8.25a1.3 1.3 0 0 0-1.29 1.29zM5.62 1.01h1.27L6.88 1a1.3 1.3 0 0 0-1.26-1zM1.24.92v.3H0v-.3zm0 .6v.3H0v-.3zm0 .6v.31H0v-.31z"/>
      <path d="M12.07.92v.3h-1.33v-.3zm0 1.2v.31H9.23a1.1 1.1 0 0 0-1.05-.08v-.23zm0-.6v.3H8.18v-.3zM1.21 5.21h.25v-.55l.16.55h.22L2 4.66v.55h.25v-.7h-.39l-.13.42-.12-.42h-.4zm1.3 0h.29l.03-.07h.3l.02.07h.29l-.28-.7h-.34zm.38-.25.09-.24.08.24zm1.38-.16h.31l-.06-.17a.4.4 0 0 0-.16-.11l-.25-.03a.6.6 0 0 0-.35.09q-.12.09-.12.28 0 .18.12.27t.35.09q.21 0 .33-.07t.14-.22h-.31l-.06.09-.1.02q-.09 0-.13-.04a.2.2 0 0 1-.05-.14q0-.1.05-.14.04-.05.13-.05.07 0 .11.03.04.04.05.1m.62.41h.27v-.29h.31v.29h.27v-.7h-.27v.24h-.31v-.24h-.27zm1.21 0h.28v-.7H6.1zm.64 0h.25V4.8l.3.41h.3v-.7h-.26v.4l-.27-.4h-.32zm1.21 0h.77v-.18h-.49v-.1h.38v-.17h-.38v-.08h.47v-.17h-.75zm1.34-.4v-.13h.15l.07.01.04.01.01.04-.01.04-.04.02-.06.01zm.26-.3h-.53v.7h.27v-.22h.16l.06.01.03.02.01.04v.04l.01.04v.04l.01.03h.3V5.2l-.02-.04-.01-.05-.01-.09v-.05l-.01-.04-.03-.03-.04-.03.06-.04.04-.06.01-.08-.02-.09-.06-.06-.09-.03zm.82.7h.28v-.2l.31-.5h-.31l-.14.28-.12-.28h-.32l.3.5z"/>
    </g>
  </g>
</svg>
