<?xml version="1.0" encoding="UTF-8"?> <svg xmlns="http://www.w3.org/2000/svg" xmlns:xlink="http://www.w3.org/1999/xlink" xmlns:xodm="http://www.corel.com/coreldraw/odm/2003" xml:space="preserve" width="227px" height="96px" version="1.1" style="shape-rendering:geometricPrecision; text-rendering:geometricPrecision; image-rendering:optimizeQuality; fill-rule:evenodd; clip-rule:evenodd" viewBox="0 0 37.86 16.07"> <defs> <style type="text/css"> .fil1 {fill:none} .fil0 {fill:#343649} </style> </defs> <g id="Layer_x0020_1"> <metadata id="CorelCorpID_0Corel-Layer"></metadata> <g id="_1864483196176"> <path class="fil0" d="M10.33 10.12l7.31 0c1.13,-0.08 2.02,-1.04 2.02,-2.17l0 0c0,-1.2 -0.98,-2.18 -2.18,-2.18l-4.33 0 -0.76 1.51 5.58 0 0 0.93c-1.94,0 -3.86,0.01 -5.79,0.01l0 -3.21 5.47 0 0 -1.9 -4.89 0c-1.34,0 -2.43,1.1 -2.43,2.43 0,1.53 0,3.05 0,4.58zm13.51 -2.31c0.89,0 1.61,0.72 1.61,1.61 0,0.89 -0.72,1.61 -1.61,1.61 -0.89,0 -1.61,-0.72 -1.61,-1.61 0,-0.89 0.72,-1.61 1.61,-1.61zm-3.17 2.31l1.23 0c-0.08,-0.22 -0.12,-0.46 -0.12,-0.7 0,-0.64 0.29,-1.21 0.74,-1.59l0 -2.82 4.69 0 0 -1.9 -4.1 0c-1.34,0 -2.44,1.1 -2.44,2.43 0,1.53 0,3.05 0,4.58zm-2.52 -5.11l2.41 0 -0.03 -0.02c-0.25,-1.07 -1.22,-1.88 -2.37,-1.88l-0.01 1.9z"></path> <polygon class="fil0" points="9.9,4.85 9.9,5.42 7.56,5.42 7.56,4.85 "></polygon> <polygon class="fil0" points="9.9,5.98 9.9,6.55 7.56,6.55 7.56,5.98 "></polygon> <polygon class="fil0" points="9.9,7.12 9.9,7.68 7.56,7.68 7.56,7.12 "></polygon> <path class="fil0" d="M30.3 4.85l0 0.57 -2.51 0 0 -0.57 2.51 0zm0 2.27l0 0.56 -5.34 0c-0.33,-0.21 -0.71,-0.33 -1.12,-0.33 -0.3,0 -0.59,0.07 -0.86,0.19l0 -0.42 7.32 0zm0 -1.14l0 0.57 -7.32 0 0 -0.57 7.32 0z"></path> <path class="fil0" d="M9.84 12.92l0.47 0 0 -1.03 0.31 1.03 0.4 0 0.32 -1.03 0 1.03 0.47 0 0 -1.32 -0.75 0 -0.24 0.81 -0.22 -0.81 -0.76 0 0 1.32zm2.46 0l0.54 0 0.05 -0.13 0.56 0 0.05 0.13 0.55 0 -0.53 -1.32 -0.65 0 -0.57 1.32zm0.71 -0.45l0.17 -0.47 0.16 0.47 -0.33 0zm2.59 -0.31l0.59 0c-0.01,-0.13 -0.05,-0.24 -0.12,-0.32 -0.06,-0.09 -0.16,-0.16 -0.29,-0.2 -0.13,-0.05 -0.28,-0.07 -0.47,-0.07 -0.29,0 -0.51,0.06 -0.66,0.17 -0.15,0.12 -0.22,0.29 -0.22,0.52 0,0.23 0.07,0.4 0.22,0.52 0.15,0.12 0.37,0.18 0.66,0.18 0.27,0 0.47,-0.05 0.62,-0.15 0.15,-0.09 0.23,-0.23 0.26,-0.41l-0.59 0c-0.01,0.07 -0.05,0.13 -0.1,0.16 -0.04,0.04 -0.11,0.06 -0.19,0.06 -0.11,0 -0.19,-0.03 -0.25,-0.09 -0.05,-0.06 -0.08,-0.15 -0.08,-0.27 0,-0.11 0.03,-0.2 0.08,-0.26 0.06,-0.06 0.14,-0.09 0.25,-0.09 0.09,0 0.16,0.02 0.21,0.06 0.05,0.04 0.07,0.1 0.08,0.19zm1.18 0.76l0.51 0 0 -0.53 0.58 0 0 0.53 0.51 0 0 -1.32 -0.51 0 0 0.46 -0.58 0 0 -0.46 -0.51 0 0 1.32zm2.29 0l0.51 0 0 -1.32 -0.51 0 0 1.32zm1.19 0l0.48 0 0 -0.77 0.56 0.77 0.57 0 0 -1.32 -0.5 0 0 0.76 -0.51 -0.76 -0.6 0 0 1.32zm2.29 0l1.44 0 0 -0.34 -0.93 0 0 -0.17 0.72 0 0 -0.33 -0.72 0 0 -0.15 0.89 0 0 -0.33 -1.4 0 0 1.32zm2.52 -0.75l0 -0.23 0.29 0c0.05,0 0.09,0 0.12,0 0.03,0.01 0.06,0.02 0.08,0.04 0.01,0.01 0.02,0.04 0.02,0.07 0,0.03 -0.01,0.06 -0.02,0.08 -0.02,0.01 -0.04,0.03 -0.07,0.03 -0.03,0.01 -0.07,0.01 -0.12,0.01l-0.3 0zm0.49 -0.57l-1.01 0 0 1.32 0.52 0 0 -0.4 0.31 0c0.04,0 0.07,0 0.1,0.01 0.02,0.01 0.04,0.02 0.06,0.04 0.01,0.02 0.02,0.05 0.02,0.08 0.01,0.03 0.01,0.06 0.01,0.08 0,0.03 0,0.05 0,0.07 0,0.03 0,0.05 0.01,0.07 0,0.02 0.01,0.04 0.02,0.05l0.56 0 0 -0.02c-0.02,-0.01 -0.03,-0.03 -0.04,-0.06 -0.01,-0.02 -0.02,-0.06 -0.02,-0.1 0,-0.05 0,-0.1 -0.01,-0.17 0,-0.03 0,-0.07 -0.01,-0.1 0,-0.03 -0.01,-0.05 -0.02,-0.07 -0.01,-0.02 -0.03,-0.04 -0.05,-0.06 -0.02,-0.02 -0.05,-0.03 -0.08,-0.05 0.04,-0.02 0.08,-0.04 0.12,-0.07 0.03,-0.04 0.05,-0.07 0.07,-0.12 0.02,-0.04 0.02,-0.09 0.02,-0.14 0,-0.07 -0.01,-0.12 -0.03,-0.17 -0.03,-0.05 -0.07,-0.09 -0.12,-0.12 -0.04,-0.03 -0.09,-0.04 -0.17,-0.05 -0.07,-0.01 -0.16,-0.02 -0.26,-0.02zm1.55 1.32l0.52 0 0 -0.37 0.58 -0.95 -0.58 0 -0.26 0.55 -0.24 -0.55 -0.59 0 0.57 0.95 0 0.37z"></path> </g> <rect class="fil1" width="37.86" height="16.07"></rect> </g> </svg>