<?xml version="1.0" encoding="UTF-8"?> <svg xmlns="http://www.w3.org/2000/svg" xmlns:xlink="http://www.w3.org/1999/xlink" xmlns:xodm="http://www.corel.com/coreldraw/odm/2003" xml:space="preserve" width="228px" height="96px" version="1.1" style="shape-rendering:geometricPrecision; text-rendering:geometricPrecision; image-rendering:optimizeQuality; fill-rule:evenodd; clip-rule:evenodd" viewBox="0 0 33.69 14.21"> <defs> <style type="text/css"> .fil0 {fill:#FEFEFE;fill-opacity:0.501961} </style> </defs> <g id="Layer_x0020_1"> <metadata id="CorelCorpID_0Corel-Layer"></metadata> <path class="fil0" d="M3.7 0l-1.28 4.94 4.27 0 0 0.72 -4.46 0 -0.19 0.72 4.65 0 0 0.72 -4.84 0 -0.19 0.72 5.03 0 0 0.72 -5.21 0 -1.48 5.67 29.99 0 1.47 -5.67 -5.63 0c-0.41,-0.26 -0.89,-0.41 -1.42,-0.41 -0.38,0 -0.75,0.08 -1.08,0.23l0 -0.54 8.32 0 0.19 -0.72 -8.51 0 0 -0.72 8.7 0 0.19 -0.72 -2.78 0 0 -0.72 2.96 0 1.29 -4.94 -29.99 0zm3.53 11.64l9.3 0c1.44,-0.1 2.57,-1.31 2.57,-2.76 0,-1.53 -1.25,-2.77 -2.77,-2.77l-5.51 0 -0.97 1.92 7.1 0 0 1.18c-2.47,0 -4.91,0.02 -7.37,0.02l0 -4.09 6.96 0 0 -2.41 -6.22 0c-1.7,0 -3.09,1.39 -3.09,3.09 0,1.94 0,3.88 0,5.82zm17.18 -2.94c1.14,0 2.05,0.92 2.05,2.05 0,1.13 -0.91,2.05 -2.05,2.05 -1.13,0 -2.05,-0.92 -2.05,-2.05 0,-1.13 0.92,-2.05 2.05,-2.05zm-4.02 2.94l1.55 0c-0.1,-0.28 -0.15,-0.58 -0.15,-0.89 0,-0.81 0.37,-1.54 0.95,-2.02l0 -3.59 5.97 0 0 -2.41 -5.23 0c-1.7,0 -3.09,1.39 -3.09,3.09 0,1.94 0,3.88 0,5.82zm-3.21 -6.5l3.06 0 -0.04 -0.02c-0.32,-1.37 -1.55,-2.39 -3.01,-2.39l-0.01 2.41z"></path> </g> </svg> 